<svg version="1.1" xmlns="http://www.w3.org/2000/svg" >
  <symbol id="icon-layers" viewBox="0 0 256 256">
    <path
      d="M0 0 C47.52 0 95.04 0 144 0 C144 5.28 144 10.56 144 16 C146.64 16 149.28 16 152 16 C152 21.28 152 26.56 152 32 C154.64 32 157.28 32 160 32 C160 37.28 160 42.56 160 48 C162.64 48 165.28 48 168 48 C168 53.28 168 58.56 168 64 C120.48 64 72.96 64 24 64 C24 58.72 24 53.44 24 48 C21.36 48 18.72 48 16 48 C16 42.72 16 37.44 16 32 C13.36 32 10.72 32 8 32 C8 26.72 8 21.44 8 16 C5.36 16 2.72 16 0 16 C0 10.72 0 5.44 0 0 Z "
      fill="currentColor"
      transform="translate(40,48)"
    />
    <path
      d="M0 0 C5.28 0 10.56 0 16 0 C16 5.28 16 10.56 16 16 C18.64 16 21.28 16 24 16 C24 18.64 24 21.28 24 24 C66.24 24 108.48 24 152 24 C152 26.64 152 29.28 152 32 C154.64 32 157.28 32 160 32 C160 37.28 160 42.56 160 48 C162.64 48 165.28 48 168 48 C168 53.28 168 58.56 168 64 C120.48 64 72.96 64 24 64 C24 58.72 24 53.44 24 48 C21.36 48 18.72 48 16 48 C16 42.72 16 37.44 16 32 C13.36 32 10.72 32 8 32 C8 26.72 8 21.44 8 16 C5.36 16 2.72 16 0 16 C0 10.72 0 5.44 0 0 Z "
      fill="currentColor"
      transform="translate(40,144)"
    />
    <path
      d="M0 0 C5.28 0 10.56 0 16 0 C16 5.28 16 10.56 16 16 C18.64 16 21.28 16 24 16 C24 18.64 24 21.28 24 24 C66.24 24 108.48 24 152 24 C152 26.64 152 29.28 152 32 C154.64 32 157.28 32 160 32 C160 37.28 160 42.56 160 48 C162.64 48 165.28 48 168 48 C168 53.28 168 58.56 168 64 C120.48 64 72.96 64 24 64 C24 58.72 24 53.44 24 48 C21.36 48 18.72 48 16 48 C16 42.72 16 37.44 16 32 C13.36 32 10.72 32 8 32 C8 26.72 8 21.44 8 16 C5.36 16 2.72 16 0 16 C0 10.72 0 5.44 0 0 Z "
      fill="currentColor"
      transform="translate(40,96)"
    />
  </symbol>
  <symbol id="icon-grab" viewBox="0 0 32 32">
    <path d="M0 0 C1.32 0 2.64 0 4 0 C4 1.32 4 2.64 4 4 C2.68 4 1.36 4 0 4 C0 2.68 0 1.36 0 0 Z " fill="currentColor" transform="translate(22,18)"/>
    <path d="M0 0 C1.32 0 2.64 0 4 0 C4 1.32 4 2.64 4 4 C2.68 4 1.36 4 0 4 C0 2.68 0 1.36 0 0 Z " fill="currentColor" transform="translate(14,18)"/>
    <path d="M0 0 C1.32 0 2.64 0 4 0 C4 1.32 4 2.64 4 4 C2.68 4 1.36 4 0 4 C0 2.68 0 1.36 0 0 Z " fill="currentColor" transform="translate(6,18)"/>
    <path d="M0 0 C1.32 0 2.64 0 4 0 C4 1.32 4 2.64 4 4 C2.68 4 1.36 4 0 4 C0 2.68 0 1.36 0 0 Z " fill="currentColor" transform="translate(22,10)"/>
    <path d="M0 0 C1.32 0 2.64 0 4 0 C4 1.32 4 2.64 4 4 C2.68 4 1.36 4 0 4 C0 2.68 0 1.36 0 0 Z " fill="currentColor" transform="translate(14,10)"/>
    <path d="M0 0 C1.32 0 2.64 0 4 0 C4 1.32 4 2.64 4 4 C2.68 4 1.36 4 0 4 C0 2.68 0 1.36 0 0 Z " fill="currentColor" transform="translate(6,10)"/>
  </symbol>
  <symbol id="icon-collapse" viewBox="0 0 256 256">
    <g transform="translate(0.000000,256.000000) scale(0.100000,-0.100000)"
       fill="currentColor" stroke="none">
      <path d="M480 1880 l0 -40 -40 0 -40 0 0 -40 0 -40 -40 0 -40 0 0 -40 0 -40
-40 0 -40 0 0 -40 0 -40 40 0 40 0 0 -40 0 -40 40 0 40 0 0 -40 0 -40 40 0 40
0 0 -40 0 -40 40 0 40 0 0 -40 0 -40 40 0 40 0 0 -40 0 -40 40 0 40 0 0 -40 0
-40 40 0 40 0 0 -40 0 -40 40 0 40 0 0 -40 0 -40 40 0 40 0 0 -40 0 -40 40 0
40 0 0 -40 0 -40 40 0 40 0 0 -40 0 -40 40 0 40 0 0 -40 0 -40 80 0 80 0 0 40
0 40 40 0 40 0 0 40 0 40 40 0 40 0 0 40 0 40 40 0 40 0 0 40 0 40 40 0 40 0
0 40 0 40 40 0 40 0 0 40 0 40 40 0 40 0 0 40 0 40 40 0 40 0 0 40 0 40 40 0
40 0 0 40 0 40 40 0 40 0 0 40 0 40 40 0 40 0 0 40 0 40 40 0 40 0 0 40 0 40
40 0 40 0 0 40 0 40 -40 0 -40 0 0 40 0 40 -40 0 -40 0 0 40 0 40 -40 0 -40 0
0 40 0 40 -40 0 -40 0 0 -40 0 -40 -40 0 -40 0 0 -40 0 -40 -40 0 -40 0 0 -40
0 -40 -40 0 -40 0 0 -40 0 -40 -40 0 -40 0 0 -40 0 -40 -40 0 -40 0 0 -40 0
-40 -40 0 -40 0 0 -40 0 -40 -40 0 -40 0 0 -40 0 -40 -40 0 -40 0 0 -40 0 -40
-80 0 -80 0 0 40 0 40 -40 0 -40 0 0 40 0 40 -40 0 -40 0 0 40 0 40 -40 0 -40
0 0 40 0 40 -40 0 -40 0 0 40 0 40 -40 0 -40 0 0 40 0 40 -40 0 -40 0 0 40 0
40 -40 0 -40 0 0 40 0 40 -40 0 -40 0 0 40 0 40 -40 0 -40 0 0 -40z"/>
    </g>
  </symbol>
  <symbol id="icon-arrow1" viewBox="0 0 256 256">
    <path d="M0 0 C2.64 0 5.28 0 8 0 C8 2.64 8 5.28 8 8 C10.64 8 13.28 8 16 8 C16 10.64 16 13.28 16 16 C18.64 16 21.28 16 24 16 C24 18.64 24 21.28 24 24 C26.64 24 29.28 24 32 24 C32 26.64 32 29.28 32 32 C34.64 32 37.28 32 40 32 C40 37.28 40 42.56 40 48 C37.36 48 34.72 48 32 48 C32 50.64 32 53.28 32 56 C29.36 56 26.72 56 24 56 C24 58.64 24 61.28 24 64 C21.36 64 18.72 64 16 64 C16 66.64 16 69.28 16 72 C13.36 72 10.72 72 8 72 C8 74.64 8 77.28 8 80 C5.36 80 2.72 80 0 80 C0 74.72 0 69.44 0 64 C2.64 64 5.28 64 8 64 C8 61.36 8 58.72 8 56 C10.64 56 13.28 56 16 56 C16 53.36 16 50.72 16 48 C-15.68 48 -47.36 48 -80 48 C-80 45.36 -80 42.72 -80 40 C-77.36 40 -74.72 40 -72 40 C-72 37.36 -72 34.72 -72 32 C-42.96 32 -13.92 32 16 32 C16 29.36 16 26.72 16 24 C13.36 24 10.72 24 8 24 C8 21.36 8 18.72 8 16 C5.36 16 2.72 16 0 16 C0 10.72 0 5.44 0 0 Z " fill="currentColor" transform="translate(184,88)"/>
    <path d="M0 0 C2.64 0 5.28 0 8 0 C8 2.64 8 5.28 8 8 C5.36 8 2.72 8 0 8 C0 5.36 0 2.72 0 0 Z " fill="currentColor" transform="translate(88,128)"/>
    <path d="M0 0 C2.64 0 5.28 0 8 0 C8 2.64 8 5.28 8 8 C5.36 8 2.72 8 0 8 C0 5.36 0 2.72 0 0 Z " fill="currentColor" transform="translate(72,128)"/>
    <path d="M0 0 C2.64 0 5.28 0 8 0 C8 2.64 8 5.28 8 8 C5.36 8 2.72 8 0 8 C0 5.36 0 2.72 0 0 Z " fill="currentColor" transform="translate(56,128)"/>
    <path d="M0 0 C2.64 0 5.28 0 8 0 C8 2.64 8 5.28 8 8 C5.36 8 2.72 8 0 8 C0 5.36 0 2.72 0 0 Z " fill="currentColor" transform="translate(40,128)"/>
    <path d="M0 0 C2.64 0 5.28 0 8 0 C8 2.64 8 5.28 8 8 C5.36 8 2.72 8 0 8 C0 5.36 0 2.72 0 0 Z " fill="currentColor" transform="translate(96,120)"/>
    <path d="M0 0 C2.64 0 5.28 0 8 0 C8 2.64 8 5.28 8 8 C5.36 8 2.72 8 0 8 C0 5.36 0 2.72 0 0 Z " fill="currentColor" transform="translate(80,120)"/>
    <path d="M0 0 C2.64 0 5.28 0 8 0 C8 2.64 8 5.28 8 8 C5.36 8 2.72 8 0 8 C0 5.36 0 2.72 0 0 Z " fill="currentColor" transform="translate(64,120)"/>
    <path d="M0 0 C2.64 0 5.28 0 8 0 C8 2.64 8 5.28 8 8 C5.36 8 2.72 8 0 8 C0 5.36 0 2.72 0 0 Z " fill="currentColor" transform="translate(48,120)"/>
    <path d="M0 0 C2.64 0 5.28 0 8 0 C8 2.64 8 5.28 8 8 C5.36 8 2.72 8 0 8 C0 5.36 0 2.72 0 0 Z " fill="currentColor" transform="translate(32,120)"/>
  </symbol>
  <symbol id="icon-arrow2" viewBox="0 0 256 256">
    <path d="M0 0 C2.64 0 5.28 0 8 0 C8 2.64 8 5.28 8 8 C10.64 8 13.28 8 16 8 C16 10.64 16 13.28 16 16 C18.64 16 21.28 16 24 16 C24 18.64 24 21.28 24 24 C26.64 24 29.28 24 32 24 C32 26.64 32 29.28 32 32 C34.64 32 37.28 32 40 32 C40 34.64 40 37.28 40 40 C42.64 40 45.28 40 48 40 C48 45.28 48 50.56 48 56 C45.36 56 42.72 56 40 56 C40 58.64 40 61.28 40 64 C37.36 64 34.72 64 32 64 C32 66.64 32 69.28 32 72 C29.36 72 26.72 72 24 72 C24 74.64 24 77.28 24 80 C21.36 80 18.72 80 16 80 C16 82.64 16 85.28 16 88 C13.36 88 10.72 88 8 88 C8 90.64 8 93.28 8 96 C5.36 96 2.72 96 0 96 C0 85.44 0 74.88 0 64 C-42.24 64 -84.48 64 -128 64 C-128 53.44 -128 42.88 -128 32 C-85.76 32 -43.52 32 0 32 C0 21.44 0 10.88 0 0 Z " fill="currentColor" transform="translate(168,80)"/>
  </symbol>
  <symbol id="icon-preview" viewBox="0 0 256 256">
    <path d="M0 0 C52.8 0 105.6 0 160 0 C160 26.4 160 52.8 160 80 C157.36 80 154.72 80 152 80 C152 77.36 152 74.72 152 72 C146.72 72 141.44 72 136 72 C136 69.36 136 66.72 136 64 C130.72 64 125.44 64 120 64 C120 61.36 120 58.72 120 56 C104.16 56 88.32 56 72 56 C72 58.64 72 61.28 72 64 C66.72 64 61.44 64 56 64 C56 66.64 56 69.28 56 72 C50.72 72 45.44 72 40 72 C40 74.64 40 77.28 40 80 C37.36 80 34.72 80 32 80 C32 82.64 32 85.28 32 88 C29.36 88 26.72 88 24 88 C24 90.64 24 93.28 24 96 C21.36 96 18.72 96 16 96 C16 101.28 16 106.56 16 112 C18.64 112 21.28 112 24 112 C24 114.64 24 117.28 24 120 C26.64 120 29.28 120 32 120 C32 122.64 32 125.28 32 128 C34.64 128 37.28 128 40 128 C40 130.64 40 133.28 40 136 C45.28 136 50.56 136 56 136 C56 138.64 56 141.28 56 144 C61.28 144 66.56 144 72 144 C72 146.64 72 149.28 72 152 C87.84 152 103.68 152 120 152 C120 149.36 120 146.72 120 144 C125.28 144 130.56 144 136 144 C136 141.36 136 138.72 136 136 C141.28 136 146.56 136 152 136 C152 133.36 152 130.72 152 128 C154.64 128 157.28 128 160 128 C160 141.2 160 154.4 160 168 C107.2 168 54.4 168 0 168 C0 112.56 0 57.12 0 0 Z M16 16 C16 21.28 16 26.56 16 32 C21.28 32 26.56 32 32 32 C32 26.72 32 21.44 32 16 C26.72 16 21.44 16 16 16 Z M48 16 C48 21.28 48 26.56 48 32 C53.28 32 58.56 32 64 32 C64 26.72 64 21.44 64 16 C58.72 16 53.44 16 48 16 Z M80 16 C80 21.28 80 26.56 80 32 C85.28 32 90.56 32 96 32 C96 26.72 96 21.44 96 16 C90.72 16 85.44 16 80 16 Z M112 16 C112 21.28 112 26.56 112 32 C117.28 32 122.56 32 128 32 C128 26.72 128 21.44 128 16 C122.72 16 117.44 16 112 16 Z M32 32 C32 37.28 32 42.56 32 48 C37.28 48 42.56 48 48 48 C48 42.72 48 37.44 48 32 C42.72 32 37.44 32 32 32 Z M64 32 C64 37.28 64 42.56 64 48 C69.28 48 74.56 48 80 48 C80 42.72 80 37.44 80 32 C74.72 32 69.44 32 64 32 Z M96 32 C96 37.28 96 42.56 96 48 C101.28 48 106.56 48 112 48 C112 42.72 112 37.44 112 32 C106.72 32 101.44 32 96 32 Z M128 32 C128 37.28 128 42.56 128 48 C133.28 48 138.56 48 144 48 C144 42.72 144 37.44 144 32 C138.72 32 133.44 32 128 32 Z M16 48 C16 53.28 16 58.56 16 64 C21.28 64 26.56 64 32 64 C32 58.72 32 53.44 32 48 C26.72 48 21.44 48 16 48 Z " fill="currentColor" transform="translate(48,48)"/>
    <path d="M0 0 C15.84 0 31.68 0 48 0 C48 2.64 48 5.28 48 8 C53.28 8 58.56 8 64 8 C64 10.64 64 13.28 64 16 C69.28 16 74.56 16 80 16 C80 18.64 80 21.28 80 24 C82.64 24 85.28 24 88 24 C88 26.64 88 29.28 88 32 C90.64 32 93.28 32 96 32 C96 37.28 96 42.56 96 48 C93.36 48 90.72 48 88 48 C88 50.64 88 53.28 88 56 C85.36 56 82.72 56 80 56 C80 58.64 80 61.28 80 64 C74.72 64 69.44 64 64 64 C64 66.64 64 69.28 64 72 C58.72 72 53.44 72 48 72 C48 74.64 48 77.28 48 80 C32.16 80 16.32 80 0 80 C0 77.36 0 74.72 0 72 C-5.28 72 -10.56 72 -16 72 C-16 69.36 -16 66.72 -16 64 C-21.28 64 -26.56 64 -32 64 C-32 61.36 -32 58.72 -32 56 C-34.64 56 -37.28 56 -40 56 C-40 53.36 -40 50.72 -40 48 C-42.64 48 -45.28 48 -48 48 C-48 42.72 -48 37.44 -48 32 C-45.36 32 -42.72 32 -40 32 C-40 29.36 -40 26.72 -40 24 C-37.36 24 -34.72 24 -32 24 C-32 21.36 -32 18.72 -32 16 C-26.72 16 -21.44 16 -16 16 C-16 13.36 -16 10.72 -16 8 C-10.72 8 -5.44 8 0 8 C0 5.36 0 2.72 0 0 Z M8 8 C8 10.64 8 13.28 8 16 C5.36 16 2.72 16 0 16 C0 18.64 0 21.28 0 24 C-2.64 24 -5.28 24 -8 24 C-8 34.56 -8 45.12 -8 56 C-5.36 56 -2.72 56 0 56 C0 58.64 0 61.28 0 64 C2.64 64 5.28 64 8 64 C8 66.64 8 69.28 8 72 C18.56 72 29.12 72 40 72 C40 69.36 40 66.72 40 64 C42.64 64 45.28 64 48 64 C48 61.36 48 58.72 48 56 C50.64 56 53.28 56 56 56 C56 45.44 56 34.88 56 24 C53.36 24 50.72 24 48 24 C48 21.36 48 18.72 48 16 C45.36 16 42.72 16 40 16 C40 13.36 40 10.72 40 8 C29.44 8 18.88 8 8 8 Z " fill="currentColor" transform="translate(120,112)"/>
    <path d="M0 0 C5.28 0 10.56 0 16 0 C16 2.64 16 5.28 16 8 C18.64 8 21.28 8 24 8 C24 10.64 24 13.28 24 16 C26.64 16 29.28 16 32 16 C32 21.28 32 26.56 32 32 C29.36 32 26.72 32 24 32 C24 34.64 24 37.28 24 40 C21.36 40 18.72 40 16 40 C16 42.64 16 45.28 16 48 C10.72 48 5.44 48 0 48 C0 45.36 0 42.72 0 40 C-2.64 40 -5.28 40 -8 40 C-8 37.36 -8 34.72 -8 32 C-10.64 32 -13.28 32 -16 32 C-16 26.72 -16 21.44 -16 16 C-13.36 16 -10.72 16 -8 16 C-8 13.36 -8 10.72 -8 8 C-5.36 8 -2.72 8 0 8 C0 5.36 0 2.72 0 0 Z M0 16 C0 21.28 0 26.56 0 32 C5.28 32 10.56 32 16 32 C16 26.72 16 21.44 16 16 C10.72 16 5.44 16 0 16 Z " fill="currentColor" transform="translate(136,128)"/>
  </symbol>
  <symbol id="icon-tileset" viewBox="0 0 256 256">
    <path d="M0 0 C15.84 0 31.68 0 48 0 C48 15.84 48 31.68 48 48 C32.16 48 16.32 48 0 48 C0 32.16 0 16.32 0 0 Z " fill="currentColor" transform="translate(104,160)"/>
    <path d="M0 0 C15.84 0 31.68 0 48 0 C48 15.84 48 31.68 48 48 C32.16 48 16.32 48 0 48 C0 32.16 0 16.32 0 0 Z " fill="currentColor" transform="translate(48,160)"/>
    <path d="M0 0 C15.84 0 31.68 0 48 0 C48 15.84 48 31.68 48 48 C32.16 48 16.32 48 0 48 C0 32.16 0 16.32 0 0 Z " fill="currentColor" transform="translate(160,104)"/>
    <path d="M0 0 C15.84 0 31.68 0 48 0 C48 15.84 48 31.68 48 48 C32.16 48 16.32 48 0 48 C0 32.16 0 16.32 0 0 Z " fill="currentColor" transform="translate(48,104)"/>
    <path d="M0 0 C15.84 0 31.68 0 48 0 C48 15.84 48 31.68 48 48 C32.16 48 16.32 48 0 48 C0 32.16 0 16.32 0 0 Z " fill="currentColor" transform="translate(160,48)"/>
    <path d="M0 0 C15.84 0 31.68 0 48 0 C48 15.84 48 31.68 48 48 C32.16 48 16.32 48 0 48 C0 32.16 0 16.32 0 0 Z " fill="currentColor" transform="translate(104,48)"/>
    <path d="M0 0 C15.84 0 31.68 0 48 0 C48 15.84 48 31.68 48 48 C32.16 48 16.32 48 0 48 C0 32.16 0 16.32 0 0 Z M16 16 C16 21.28 16 26.56 16 32 C21.28 32 26.56 32 32 32 C32 26.72 32 21.44 32 16 C26.72 16 21.44 16 16 16 Z " fill="currentColor" transform="translate(48,48)"/>
    <path d="M0 0 C10.56 0 21.12 0 32 0 C32 2.64 32 5.28 32 8 C34.64 8 37.28 8 40 8 C40 18.56 40 29.12 40 40 C37.36 40 34.72 40 32 40 C32 42.64 32 45.28 32 48 C21.44 48 10.88 48 0 48 C0 45.36 0 42.72 0 40 C-2.64 40 -5.28 40 -8 40 C-8 29.44 -8 18.88 -8 8 C-5.36 8 -2.72 8 0 8 C0 5.36 0 2.72 0 0 Z M8 16 C8 21.28 8 26.56 8 32 C13.28 32 18.56 32 24 32 C24 26.72 24 21.44 24 16 C18.72 16 13.44 16 8 16 Z " fill="currentColor" transform="translate(112,104)"/>
    <path d="M0 0 C5.28 0 10.56 0 16 0 C16 2.64 16 5.28 16 8 C18.64 8 21.28 8 24 8 C24 10.64 24 13.28 24 16 C26.64 16 29.28 16 32 16 C32 21.28 32 26.56 32 32 C29.36 32 26.72 32 24 32 C24 34.64 24 37.28 24 40 C21.36 40 18.72 40 16 40 C16 42.64 16 45.28 16 48 C10.72 48 5.44 48 0 48 C0 45.36 0 42.72 0 40 C-2.64 40 -5.28 40 -8 40 C-8 37.36 -8 34.72 -8 32 C-10.64 32 -13.28 32 -16 32 C-16 26.72 -16 21.44 -16 16 C-13.36 16 -10.72 16 -8 16 C-8 13.36 -8 10.72 -8 8 C-5.36 8 -2.72 8 0 8 C0 5.36 0 2.72 0 0 Z M0 16 C0 21.28 0 26.56 0 32 C5.28 32 10.56 32 16 32 C16 26.72 16 21.44 16 16 C10.72 16 5.44 16 0 16 Z " fill="currentColor" transform="translate(176,160)"/>
  </symbol>
  <symbol id="icon-arrow1" viewBox="0 0 256 256"></symbol>
  <symbol id="icon-arrow1" viewBox="0 0 256 256"></symbol>

</svg>
