<svg version="1.1" xmlns="http://www.w3.org/2000/svg" >
  <symbol id="icon-layers" viewBox="0 0 256 256">
    <path
      d="M0 0 C47.52 0 95.04 0 144 0 C144 5.28 144 10.56 144 16 C146.64 16 149.28 16 152 16 C152 21.28 152 26.56 152 32 C154.64 32 157.28 32 160 32 C160 37.28 160 42.56 160 48 C162.64 48 165.28 48 168 48 C168 53.28 168 58.56 168 64 C120.48 64 72.96 64 24 64 C24 58.72 24 53.44 24 48 C21.36 48 18.72 48 16 48 C16 42.72 16 37.44 16 32 C13.36 32 10.72 32 8 32 C8 26.72 8 21.44 8 16 C5.36 16 2.72 16 0 16 C0 10.72 0 5.44 0 0 Z "
      fill="currentColor"
      transform="translate(40,48)"
    />
    <path
      d="M0 0 C5.28 0 10.56 0 16 0 C16 5.28 16 10.56 16 16 C18.64 16 21.28 16 24 16 C24 18.64 24 21.28 24 24 C66.24 24 108.48 24 152 24 C152 26.64 152 29.28 152 32 C154.64 32 157.28 32 160 32 C160 37.28 160 42.56 160 48 C162.64 48 165.28 48 168 48 C168 53.28 168 58.56 168 64 C120.48 64 72.96 64 24 64 C24 58.72 24 53.44 24 48 C21.36 48 18.72 48 16 48 C16 42.72 16 37.44 16 32 C13.36 32 10.72 32 8 32 C8 26.72 8 21.44 8 16 C5.36 16 2.72 16 0 16 C0 10.72 0 5.44 0 0 Z "
      fill="currentColor"
      transform="translate(40,144)"
    />
    <path
      d="M0 0 C5.28 0 10.56 0 16 0 C16 5.28 16 10.56 16 16 C18.64 16 21.28 16 24 16 C24 18.64 24 21.28 24 24 C66.24 24 108.48 24 152 24 C152 26.64 152 29.28 152 32 C154.64 32 157.28 32 160 32 C160 37.28 160 42.56 160 48 C162.64 48 165.28 48 168 48 C168 53.28 168 58.56 168 64 C120.48 64 72.96 64 24 64 C24 58.72 24 53.44 24 48 C21.36 48 18.72 48 16 48 C16 42.72 16 37.44 16 32 C13.36 32 10.72 32 8 32 C8 26.72 8 21.44 8 16 C5.36 16 2.72 16 0 16 C0 10.72 0 5.44 0 0 Z "
      fill="currentColor"
      transform="translate(40,96)"
    />
  </symbol>
  <symbol id="icon-grab" viewBox="0 0 32 32">
    <path d="M0 0 C1.32 0 2.64 0 4 0 C4 1.32 4 2.64 4 4 C2.68 4 1.36 4 0 4 C0 2.68 0 1.36 0 0 Z " fill="currentColor" transform="translate(22,18)"/>
    <path d="M0 0 C1.32 0 2.64 0 4 0 C4 1.32 4 2.64 4 4 C2.68 4 1.36 4 0 4 C0 2.68 0 1.36 0 0 Z " fill="currentColor" transform="translate(14,18)"/>
    <path d="M0 0 C1.32 0 2.64 0 4 0 C4 1.32 4 2.64 4 4 C2.68 4 1.36 4 0 4 C0 2.68 0 1.36 0 0 Z " fill="currentColor" transform="translate(6,18)"/>
    <path d="M0 0 C1.32 0 2.64 0 4 0 C4 1.32 4 2.64 4 4 C2.68 4 1.36 4 0 4 C0 2.68 0 1.36 0 0 Z " fill="currentColor" transform="translate(22,10)"/>
    <path d="M0 0 C1.32 0 2.64 0 4 0 C4 1.32 4 2.64 4 4 C2.68 4 1.36 4 0 4 C0 2.68 0 1.36 0 0 Z " fill="currentColor" transform="translate(14,10)"/>
    <path d="M0 0 C1.32 0 2.64 0 4 0 C4 1.32 4 2.64 4 4 C2.68 4 1.36 4 0 4 C0 2.68 0 1.36 0 0 Z " fill="currentColor" transform="translate(6,10)"/>
  </symbol>
  <symbol id="icon-collapse" viewBox="0 0 256 256">
    <g transform="translate(0.000000,256.000000) scale(0.100000,-0.100000)"
       fill="currentColor" stroke="none">
      <path d="M480 1880 l0 -40 -40 0 -40 0 0 -40 0 -40 -40 0 -40 0 0 -40 0 -40
-40 0 -40 0 0 -40 0 -40 40 0 40 0 0 -40 0 -40 40 0 40 0 0 -40 0 -40 40 0 40
0 0 -40 0 -40 40 0 40 0 0 -40 0 -40 40 0 40 0 0 -40 0 -40 40 0 40 0 0 -40 0
-40 40 0 40 0 0 -40 0 -40 40 0 40 0 0 -40 0 -40 40 0 40 0 0 -40 0 -40 40 0
40 0 0 -40 0 -40 40 0 40 0 0 -40 0 -40 40 0 40 0 0 -40 0 -40 80 0 80 0 0 40
0 40 40 0 40 0 0 40 0 40 40 0 40 0 0 40 0 40 40 0 40 0 0 40 0 40 40 0 40 0
0 40 0 40 40 0 40 0 0 40 0 40 40 0 40 0 0 40 0 40 40 0 40 0 0 40 0 40 40 0
40 0 0 40 0 40 40 0 40 0 0 40 0 40 40 0 40 0 0 40 0 40 40 0 40 0 0 40 0 40
40 0 40 0 0 40 0 40 -40 0 -40 0 0 40 0 40 -40 0 -40 0 0 40 0 40 -40 0 -40 0
0 40 0 40 -40 0 -40 0 0 -40 0 -40 -40 0 -40 0 0 -40 0 -40 -40 0 -40 0 0 -40
0 -40 -40 0 -40 0 0 -40 0 -40 -40 0 -40 0 0 -40 0 -40 -40 0 -40 0 0 -40 0
-40 -40 0 -40 0 0 -40 0 -40 -40 0 -40 0 0 -40 0 -40 -40 0 -40 0 0 -40 0 -40
-80 0 -80 0 0 40 0 40 -40 0 -40 0 0 40 0 40 -40 0 -40 0 0 40 0 40 -40 0 -40
0 0 40 0 40 -40 0 -40 0 0 40 0 40 -40 0 -40 0 0 40 0 40 -40 0 -40 0 0 40 0
40 -40 0 -40 0 0 40 0 40 -40 0 -40 0 0 40 0 40 -40 0 -40 0 0 -40z"/>
    </g>
  </symbol>
  <symbol id="icon-arrow1" viewBox="0 0 256 256">
    <path d="M0 0 C2.64 0 5.28 0 8 0 C8 2.64 8 5.28 8 8 C10.64 8 13.28 8 16 8 C16 10.64 16 13.28 16 16 C18.64 16 21.28 16 24 16 C24 18.64 24 21.28 24 24 C26.64 24 29.28 24 32 24 C32 26.64 32 29.28 32 32 C34.64 32 37.28 32 40 32 C40 37.28 40 42.56 40 48 C37.36 48 34.72 48 32 48 C32 50.64 32 53.28 32 56 C29.36 56 26.72 56 24 56 C24 58.64 24 61.28 24 64 C21.36 64 18.72 64 16 64 C16 66.64 16 69.28 16 72 C13.36 72 10.72 72 8 72 C8 74.64 8 77.28 8 80 C5.36 80 2.72 80 0 80 C0 74.72 0 69.44 0 64 C2.64 64 5.28 64 8 64 C8 61.36 8 58.72 8 56 C10.64 56 13.28 56 16 56 C16 53.36 16 50.72 16 48 C-15.68 48 -47.36 48 -80 48 C-80 45.36 -80 42.72 -80 40 C-77.36 40 -74.72 40 -72 40 C-72 37.36 -72 34.72 -72 32 C-42.96 32 -13.92 32 16 32 C16 29.36 16 26.72 16 24 C13.36 24 10.72 24 8 24 C8 21.36 8 18.72 8 16 C5.36 16 2.72 16 0 16 C0 10.72 0 5.44 0 0 Z " fill="currentColor" transform="translate(184,88)"/>
    <path d="M0 0 C2.64 0 5.28 0 8 0 C8 2.64 8 5.28 8 8 C5.36 8 2.72 8 0 8 C0 5.36 0 2.72 0 0 Z " fill="currentColor" transform="translate(88,128)"/>
    <path d="M0 0 C2.64 0 5.28 0 8 0 C8 2.64 8 5.28 8 8 C5.36 8 2.72 8 0 8 C0 5.36 0 2.72 0 0 Z " fill="currentColor" transform="translate(72,128)"/>
    <path d="M0 0 C2.64 0 5.28 0 8 0 C8 2.64 8 5.28 8 8 C5.36 8 2.72 8 0 8 C0 5.36 0 2.72 0 0 Z " fill="currentColor" transform="translate(56,128)"/>
    <path d="M0 0 C2.64 0 5.28 0 8 0 C8 2.64 8 5.28 8 8 C5.36 8 2.72 8 0 8 C0 5.36 0 2.72 0 0 Z " fill="currentColor" transform="translate(40,128)"/>
    <path d="M0 0 C2.64 0 5.28 0 8 0 C8 2.64 8 5.28 8 8 C5.36 8 2.72 8 0 8 C0 5.36 0 2.72 0 0 Z " fill="currentColor" transform="translate(96,120)"/>
    <path d="M0 0 C2.64 0 5.28 0 8 0 C8 2.64 8 5.28 8 8 C5.36 8 2.72 8 0 8 C0 5.36 0 2.72 0 0 Z " fill="currentColor" transform="translate(80,120)"/>
    <path d="M0 0 C2.64 0 5.28 0 8 0 C8 2.64 8 5.28 8 8 C5.36 8 2.72 8 0 8 C0 5.36 0 2.72 0 0 Z " fill="currentColor" transform="translate(64,120)"/>
    <path d="M0 0 C2.64 0 5.28 0 8 0 C8 2.64 8 5.28 8 8 C5.36 8 2.72 8 0 8 C0 5.36 0 2.72 0 0 Z " fill="currentColor" transform="translate(48,120)"/>
    <path d="M0 0 C2.64 0 5.28 0 8 0 C8 2.64 8 5.28 8 8 C5.36 8 2.72 8 0 8 C0 5.36 0 2.72 0 0 Z " fill="currentColor" transform="translate(32,120)"/>
  </symbol>
  <symbol id="icon-arrow2" viewBox="0 0 256 256">
    <path d="M0 0 C2.64 0 5.28 0 8 0 C8 2.64 8 5.28 8 8 C10.64 8 13.28 8 16 8 C16 10.64 16 13.28 16 16 C18.64 16 21.28 16 24 16 C24 18.64 24 21.28 24 24 C26.64 24 29.28 24 32 24 C32 26.64 32 29.28 32 32 C34.64 32 37.28 32 40 32 C40 34.64 40 37.28 40 40 C42.64 40 45.28 40 48 40 C48 45.28 48 50.56 48 56 C45.36 56 42.72 56 40 56 C40 58.64 40 61.28 40 64 C37.36 64 34.72 64 32 64 C32 66.64 32 69.28 32 72 C29.36 72 26.72 72 24 72 C24 74.64 24 77.28 24 80 C21.36 80 18.72 80 16 80 C16 82.64 16 85.28 16 88 C13.36 88 10.72 88 8 88 C8 90.64 8 93.28 8 96 C5.36 96 2.72 96 0 96 C0 85.44 0 74.88 0 64 C-42.24 64 -84.48 64 -128 64 C-128 53.44 -128 42.88 -128 32 C-85.76 32 -43.52 32 0 32 C0 21.44 0 10.88 0 0 Z " fill="currentColor" transform="translate(168,80)"/>
  </symbol>
  <symbol id="icon-preview" viewBox="0 0 256 256">
    <path d="M0 0 C52.8 0 105.6 0 160 0 C160 26.4 160 52.8 160 80 C157.36 80 154.72 80 152 80 C152 77.36 152 74.72 152 72 C146.72 72 141.44 72 136 72 C136 69.36 136 66.72 136 64 C130.72 64 125.44 64 120 64 C120 61.36 120 58.72 120 56 C104.16 56 88.32 56 72 56 C72 58.64 72 61.28 72 64 C66.72 64 61.44 64 56 64 C56 66.64 56 69.28 56 72 C50.72 72 45.44 72 40 72 C40 74.64 40 77.28 40 80 C37.36 80 34.72 80 32 80 C32 82.64 32 85.28 32 88 C29.36 88 26.72 88 24 88 C24 90.64 24 93.28 24 96 C21.36 96 18.72 96 16 96 C16 101.28 16 106.56 16 112 C18.64 112 21.28 112 24 112 C24 114.64 24 117.28 24 120 C26.64 120 29.28 120 32 120 C32 122.64 32 125.28 32 128 C34.64 128 37.28 128 40 128 C40 130.64 40 133.28 40 136 C45.28 136 50.56 136 56 136 C56 138.64 56 141.28 56 144 C61.28 144 66.56 144 72 144 C72 146.64 72 149.28 72 152 C87.84 152 103.68 152 120 152 C120 149.36 120 146.72 120 144 C125.28 144 130.56 144 136 144 C136 141.36 136 138.72 136 136 C141.28 136 146.56 136 152 136 C152 133.36 152 130.72 152 128 C154.64 128 157.28 128 160 128 C160 141.2 160 154.4 160 168 C107.2 168 54.4 168 0 168 C0 112.56 0 57.12 0 0 Z M16 16 C16 21.28 16 26.56 16 32 C21.28 32 26.56 32 32 32 C32 26.72 32 21.44 32 16 C26.72 16 21.44 16 16 16 Z M48 16 C48 21.28 48 26.56 48 32 C53.28 32 58.56 32 64 32 C64 26.72 64 21.44 64 16 C58.72 16 53.44 16 48 16 Z M80 16 C80 21.28 80 26.56 80 32 C85.28 32 90.56 32 96 32 C96 26.72 96 21.44 96 16 C90.72 16 85.44 16 80 16 Z M112 16 C112 21.28 112 26.56 112 32 C117.28 32 122.56 32 128 32 C128 26.72 128 21.44 128 16 C122.72 16 117.44 16 112 16 Z M32 32 C32 37.28 32 42.56 32 48 C37.28 48 42.56 48 48 48 C48 42.72 48 37.44 48 32 C42.72 32 37.44 32 32 32 Z M64 32 C64 37.28 64 42.56 64 48 C69.28 48 74.56 48 80 48 C80 42.72 80 37.44 80 32 C74.72 32 69.44 32 64 32 Z M96 32 C96 37.28 96 42.56 96 48 C101.28 48 106.56 48 112 48 C112 42.72 112 37.44 112 32 C106.72 32 101.44 32 96 32 Z M128 32 C128 37.28 128 42.56 128 48 C133.28 48 138.56 48 144 48 C144 42.72 144 37.44 144 32 C138.72 32 133.44 32 128 32 Z M16 48 C16 53.28 16 58.56 16 64 C21.28 64 26.56 64 32 64 C32 58.72 32 53.44 32 48 C26.72 48 21.44 48 16 48 Z " fill="currentColor" transform="translate(48,48)"/>
    <path d="M0 0 C15.84 0 31.68 0 48 0 C48 2.64 48 5.28 48 8 C53.28 8 58.56 8 64 8 C64 10.64 64 13.28 64 16 C69.28 16 74.56 16 80 16 C80 18.64 80 21.28 80 24 C82.64 24 85.28 24 88 24 C88 26.64 88 29.28 88 32 C90.64 32 93.28 32 96 32 C96 37.28 96 42.56 96 48 C93.36 48 90.72 48 88 48 C88 50.64 88 53.28 88 56 C85.36 56 82.72 56 80 56 C80 58.64 80 61.28 80 64 C74.72 64 69.44 64 64 64 C64 66.64 64 69.28 64 72 C58.72 72 53.44 72 48 72 C48 74.64 48 77.28 48 80 C32.16 80 16.32 80 0 80 C0 77.36 0 74.72 0 72 C-5.28 72 -10.56 72 -16 72 C-16 69.36 -16 66.72 -16 64 C-21.28 64 -26.56 64 -32 64 C-32 61.36 -32 58.72 -32 56 C-34.64 56 -37.28 56 -40 56 C-40 53.36 -40 50.72 -40 48 C-42.64 48 -45.28 48 -48 48 C-48 42.72 -48 37.44 -48 32 C-45.36 32 -42.72 32 -40 32 C-40 29.36 -40 26.72 -40 24 C-37.36 24 -34.72 24 -32 24 C-32 21.36 -32 18.72 -32 16 C-26.72 16 -21.44 16 -16 16 C-16 13.36 -16 10.72 -16 8 C-10.72 8 -5.44 8 0 8 C0 5.36 0 2.72 0 0 Z M8 8 C8 10.64 8 13.28 8 16 C5.36 16 2.72 16 0 16 C0 18.64 0 21.28 0 24 C-2.64 24 -5.28 24 -8 24 C-8 34.56 -8 45.12 -8 56 C-5.36 56 -2.72 56 0 56 C0 58.64 0 61.28 0 64 C2.64 64 5.28 64 8 64 C8 66.64 8 69.28 8 72 C18.56 72 29.12 72 40 72 C40 69.36 40 66.72 40 64 C42.64 64 45.28 64 48 64 C48 61.36 48 58.72 48 56 C50.64 56 53.28 56 56 56 C56 45.44 56 34.88 56 24 C53.36 24 50.72 24 48 24 C48 21.36 48 18.72 48 16 C45.36 16 42.72 16 40 16 C40 13.36 40 10.72 40 8 C29.44 8 18.88 8 8 8 Z " fill="currentColor" transform="translate(120,112)"/>
    <path d="M0 0 C5.28 0 10.56 0 16 0 C16 2.64 16 5.28 16 8 C18.64 8 21.28 8 24 8 C24 10.64 24 13.28 24 16 C26.64 16 29.28 16 32 16 C32 21.28 32 26.56 32 32 C29.36 32 26.72 32 24 32 C24 34.64 24 37.28 24 40 C21.36 40 18.72 40 16 40 C16 42.64 16 45.28 16 48 C10.72 48 5.44 48 0 48 C0 45.36 0 42.72 0 40 C-2.64 40 -5.28 40 -8 40 C-8 37.36 -8 34.72 -8 32 C-10.64 32 -13.28 32 -16 32 C-16 26.72 -16 21.44 -16 16 C-13.36 16 -10.72 16 -8 16 C-8 13.36 -8 10.72 -8 8 C-5.36 8 -2.72 8 0 8 C0 5.36 0 2.72 0 0 Z M0 16 C0 21.28 0 26.56 0 32 C5.28 32 10.56 32 16 32 C16 26.72 16 21.44 16 16 C10.72 16 5.44 16 0 16 Z " fill="currentColor" transform="translate(136,128)"/>
  </symbol>
  <symbol id="icon-tileset" viewBox="0 0 256 256">
    <path d="M0 0 C15.84 0 31.68 0 48 0 C48 15.84 48 31.68 48 48 C32.16 48 16.32 48 0 48 C0 32.16 0 16.32 0 0 Z " fill="currentColor" transform="translate(104,160)"/>
    <path d="M0 0 C15.84 0 31.68 0 48 0 C48 15.84 48 31.68 48 48 C32.16 48 16.32 48 0 48 C0 32.16 0 16.32 0 0 Z " fill="currentColor" transform="translate(48,160)"/>
    <path d="M0 0 C15.84 0 31.68 0 48 0 C48 15.84 48 31.68 48 48 C32.16 48 16.32 48 0 48 C0 32.16 0 16.32 0 0 Z " fill="currentColor" transform="translate(160,104)"/>
    <path d="M0 0 C15.84 0 31.68 0 48 0 C48 15.84 48 31.68 48 48 C32.16 48 16.32 48 0 48 C0 32.16 0 16.32 0 0 Z " fill="currentColor" transform="translate(48,104)"/>
    <path d="M0 0 C15.84 0 31.68 0 48 0 C48 15.84 48 31.68 48 48 C32.16 48 16.32 48 0 48 C0 32.16 0 16.32 0 0 Z " fill="currentColor" transform="translate(160,48)"/>
    <path d="M0 0 C15.84 0 31.68 0 48 0 C48 15.84 48 31.68 48 48 C32.16 48 16.32 48 0 48 C0 32.16 0 16.32 0 0 Z " fill="currentColor" transform="translate(104,48)"/>
    <path d="M0 0 C15.84 0 31.68 0 48 0 C48 15.84 48 31.68 48 48 C32.16 48 16.32 48 0 48 C0 32.16 0 16.32 0 0 Z M16 16 C16 21.28 16 26.56 16 32 C21.28 32 26.56 32 32 32 C32 26.72 32 21.44 32 16 C26.72 16 21.44 16 16 16 Z " fill="currentColor" transform="translate(48,48)"/>
    <path d="M0 0 C10.56 0 21.12 0 32 0 C32 2.64 32 5.28 32 8 C34.64 8 37.28 8 40 8 C40 18.56 40 29.12 40 40 C37.36 40 34.72 40 32 40 C32 42.64 32 45.28 32 48 C21.44 48 10.88 48 0 48 C0 45.36 0 42.72 0 40 C-2.64 40 -5.28 40 -8 40 C-8 29.44 -8 18.88 -8 8 C-5.36 8 -2.72 8 0 8 C0 5.36 0 2.72 0 0 Z M8 16 C8 21.28 8 26.56 8 32 C13.28 32 18.56 32 24 32 C24 26.72 24 21.44 24 16 C18.72 16 13.44 16 8 16 Z " fill="currentColor" transform="translate(112,104)"/>
    <path d="M0 0 C5.28 0 10.56 0 16 0 C16 2.64 16 5.28 16 8 C18.64 8 21.28 8 24 8 C24 10.64 24 13.28 24 16 C26.64 16 29.28 16 32 16 C32 21.28 32 26.56 32 32 C29.36 32 26.72 32 24 32 C24 34.64 24 37.28 24 40 C21.36 40 18.72 40 16 40 C16 42.64 16 45.28 16 48 C10.72 48 5.44 48 0 48 C0 45.36 0 42.72 0 40 C-2.64 40 -5.28 40 -8 40 C-8 37.36 -8 34.72 -8 32 C-10.64 32 -13.28 32 -16 32 C-16 26.72 -16 21.44 -16 16 C-13.36 16 -10.72 16 -8 16 C-8 13.36 -8 10.72 -8 8 C-5.36 8 -2.72 8 0 8 C0 5.36 0 2.72 0 0 Z M0 16 C0 21.28 0 26.56 0 32 C5.28 32 10.56 32 16 32 C16 26.72 16 21.44 16 16 C10.72 16 5.44 16 0 16 Z " fill="currentColor" transform="translate(176,160)"/>
  </symbol>
  <symbol id="icon-grid" viewBox="0 0 256 256">
    <path d="M0 0 C58.08 0 116.16 0 176 0 C176 58.08 176 116.16 176 176 C117.92 176 59.84 176 0 176 C0 117.92 0 59.84 0 0 Z M24 24 C24 42.48 24 60.96 24 80 C42.48 80 60.96 80 80 80 C80 61.52 80 43.04 80 24 C61.52 24 43.04 24 24 24 Z M96 24 C96 42.48 96 60.96 96 80 C114.48 80 132.96 80 152 80 C152 61.52 152 43.04 152 24 C133.52 24 115.04 24 96 24 Z M24 96 C24 114.48 24 132.96 24 152 C42.48 152 60.96 152 80 152 C80 133.52 80 115.04 80 96 C61.52 96 43.04 96 24 96 Z M96 96 C96 114.48 96 132.96 96 152 C114.48 152 132.96 152 152 152 C152 133.52 152 115.04 152 96 C133.52 96 115.04 96 96 96 Z " fill="currentColor" transform="translate(40,40)"/>
  </symbol>
  <symbol id="icon-history" viewBox="0 0 256 256">
    <path d="M0 0 C21.12 0 42.24 0 64 0 C64 2.64 64 5.28 64 8 C69.28 8 74.56 8 80 8 C80 10.64 80 13.28 80 16 C82.64 16 85.28 16 88 16 C88 18.64 88 21.28 88 24 C90.64 24 93.28 24 96 24 C96 26.64 96 29.28 96 32 C98.64 32 101.28 32 104 32 C104 34.64 104 37.28 104 40 C106.64 40 109.28 40 112 40 C112 45.28 112 50.56 112 56 C114.64 56 117.28 56 120 56 C120 77.12 120 98.24 120 120 C117.36 120 114.72 120 112 120 C112 125.28 112 130.56 112 136 C109.36 136 106.72 136 104 136 C104 138.64 104 141.28 104 144 C101.36 144 98.72 144 96 144 C96 146.64 96 149.28 96 152 C93.36 152 90.72 152 88 152 C88 154.64 88 157.28 88 160 C85.36 160 82.72 160 80 160 C80 162.64 80 165.28 80 168 C74.72 168 69.44 168 64 168 C64 170.64 64 173.28 64 176 C42.88 176 21.76 176 0 176 C0 173.36 0 170.72 0 168 C-5.28 168 -10.56 168 -16 168 C-16 162.72 -16 157.44 -16 152 C-8.08 152 -0.16 152 8 152 C8 154.64 8 157.28 8 160 C23.84 160 39.68 160 56 160 C56 157.36 56 154.72 56 152 C61.28 152 66.56 152 72 152 C72 149.36 72 146.72 72 144 C77.28 144 82.56 144 88 144 C88 138.72 88 133.44 88 128 C90.64 128 93.28 128 96 128 C96 122.72 96 117.44 96 112 C98.64 112 101.28 112 104 112 C104 96.16 104 80.32 104 64 C101.36 64 98.72 64 96 64 C96 58.72 96 53.44 96 48 C93.36 48 90.72 48 88 48 C88 42.72 88 37.44 88 32 C82.72 32 77.44 32 72 32 C72 29.36 72 26.72 72 24 C66.72 24 61.44 24 56 24 C56 21.36 56 18.72 56 16 C40.16 16 24.32 16 8 16 C8 18.64 8 21.28 8 24 C2.72 24 -2.56 24 -8 24 C-8 26.64 -8 29.28 -8 32 C-13.28 32 -18.56 32 -24 32 C-24 37.28 -24 42.56 -24 48 C-26.64 48 -29.28 48 -32 48 C-32 53.28 -32 58.56 -32 64 C-34.64 64 -37.28 64 -40 64 C-40 66.64 -40 69.28 -40 72 C-29.44 72 -18.88 72 -8 72 C-8 74.64 -8 77.28 -8 80 C-10.64 80 -13.28 80 -16 80 C-16 82.64 -16 85.28 -16 88 C-18.64 88 -21.28 88 -24 88 C-24 90.64 -24 93.28 -24 96 C-26.64 96 -29.28 96 -32 96 C-32 98.64 -32 101.28 -32 104 C-34.64 104 -37.28 104 -40 104 C-40 106.64 -40 109.28 -40 112 C-45.28 112 -50.56 112 -56 112 C-56 109.36 -56 106.72 -56 104 C-58.64 104 -61.28 104 -64 104 C-64 101.36 -64 98.72 -64 96 C-66.64 96 -69.28 96 -72 96 C-72 93.36 -72 90.72 -72 88 C-74.64 88 -77.28 88 -80 88 C-80 85.36 -80 82.72 -80 80 C-82.64 80 -85.28 80 -88 80 C-88 77.36 -88 74.72 -88 72 C-77.44 72 -66.88 72 -56 72 C-56 66.72 -56 61.44 -56 56 C-53.36 56 -50.72 56 -48 56 C-48 50.72 -48 45.44 -48 40 C-45.36 40 -42.72 40 -40 40 C-40 37.36 -40 34.72 -40 32 C-37.36 32 -34.72 32 -32 32 C-32 29.36 -32 26.72 -32 24 C-29.36 24 -26.72 24 -24 24 C-24 21.36 -24 18.72 -24 16 C-21.36 16 -18.72 16 -16 16 C-16 13.36 -16 10.72 -16 8 C-10.72 8 -5.44 8 0 8 C0 5.36 0 2.72 0 0 Z " fill="currentColor" transform="translate(104,40)"/>
    <path d="M0 0 C5.28 0 10.56 0 16 0 C16 18.48 16 36.96 16 56 C18.64 56 21.28 56 24 56 C24 58.64 24 61.28 24 64 C26.64 64 29.28 64 32 64 C32 66.64 32 69.28 32 72 C34.64 72 37.28 72 40 72 C40 74.64 40 77.28 40 80 C42.64 80 45.28 80 48 80 C48 85.28 48 90.56 48 96 C42.72 96 37.44 96 32 96 C32 93.36 32 90.72 32 88 C29.36 88 26.72 88 24 88 C24 85.36 24 82.72 24 80 C21.36 80 18.72 80 16 80 C16 77.36 16 74.72 16 72 C13.36 72 10.72 72 8 72 C8 69.36 8 66.72 8 64 C5.36 64 2.72 64 0 64 C0 42.88 0 21.76 0 0 Z " fill="currentColor" transform="translate(128,72)"/>
  </symbol>
  <symbol id="icon-zoom-in" viewBox="0 0 256 256">
    <path d="M0 0 C15.84 0 31.68 0 48 0 C48 2.64 48 5.28 48 8 C53.28 8 58.56 8 64 8 C64 10.64 64 13.28 64 16 C66.64 16 69.28 16 72 16 C72 21.28 72 26.56 72 32 C74.64 32 77.28 32 80 32 C80 47.84 80 63.68 80 80 C77.36 80 74.72 80 72 80 C72 85.28 72 90.56 72 96 C74.64 96 77.28 96 80 96 C80 98.64 80 101.28 80 104 C85.28 104 90.56 104 96 104 C96 106.64 96 109.28 96 112 C98.64 112 101.28 112 104 112 C104 114.64 104 117.28 104 120 C106.64 120 109.28 120 112 120 C112 122.64 112 125.28 112 128 C114.64 128 117.28 128 120 128 C120 130.64 120 133.28 120 136 C122.64 136 125.28 136 128 136 C128 143.92 128 151.84 128 160 C120.08 160 112.16 160 104 160 C104 157.36 104 154.72 104 152 C101.36 152 98.72 152 96 152 C96 149.36 96 146.72 96 144 C93.36 144 90.72 144 88 144 C88 141.36 88 138.72 88 136 C85.36 136 82.72 136 80 136 C80 133.36 80 130.72 80 128 C77.36 128 74.72 128 72 128 C72 122.72 72 117.44 72 112 C69.36 112 66.72 112 64 112 C64 109.36 64 106.72 64 104 C58.72 104 53.44 104 48 104 C48 106.64 48 109.28 48 112 C32.16 112 16.32 112 0 112 C0 109.36 0 106.72 0 104 C-5.28 104 -10.56 104 -16 104 C-16 101.36 -16 98.72 -16 96 C-18.64 96 -21.28 96 -24 96 C-24 90.72 -24 85.44 -24 80 C-26.64 80 -29.28 80 -32 80 C-32 64.16 -32 48.32 -32 32 C-29.36 32 -26.72 32 -24 32 C-24 26.72 -24 21.44 -24 16 C-21.36 16 -18.72 16 -16 16 C-16 13.36 -16 10.72 -16 8 C-10.72 8 -5.44 8 0 8 C0 5.36 0 2.72 0 0 Z M0 16 C0 18.64 0 21.28 0 24 C-2.64 24 -5.28 24 -8 24 C-8 26.64 -8 29.28 -8 32 C-10.64 32 -13.28 32 -16 32 C-16 47.84 -16 63.68 -16 80 C-13.36 80 -10.72 80 -8 80 C-8 82.64 -8 85.28 -8 88 C-5.36 88 -2.72 88 0 88 C0 90.64 0 93.28 0 96 C15.84 96 31.68 96 48 96 C48 93.36 48 90.72 48 88 C50.64 88 53.28 88 56 88 C56 85.36 56 82.72 56 80 C58.64 80 61.28 80 64 80 C64 64.16 64 48.32 64 32 C61.36 32 58.72 32 56 32 C56 29.36 56 26.72 56 24 C53.36 24 50.72 24 48 24 C48 21.36 48 18.72 48 16 C32.16 16 16.32 16 0 16 Z " fill="currentColor" transform="translate(80,48)"/>
    <path d="M0 0 C5.28 0 10.56 0 16 0 C16 5.28 16 10.56 16 16 C21.28 16 26.56 16 32 16 C32 21.28 32 26.56 32 32 C26.72 32 21.44 32 16 32 C16 37.28 16 42.56 16 48 C10.72 48 5.44 48 0 48 C0 42.72 0 37.44 0 32 C-5.28 32 -10.56 32 -16 32 C-16 26.72 -16 21.44 -16 16 C-10.72 16 -5.44 16 0 16 C0 10.72 0 5.44 0 0 Z " fill="currentColor" transform="translate(96,80)"/>
  </symbol>
  <symbol id="icon-zoom-out" viewBox="0 0 256 256">
    <path d="M0 0 C15.84 0 31.68 0 48 0 C48 2.64 48 5.28 48 8 C53.28 8 58.56 8 64 8 C64 10.64 64 13.28 64 16 C66.64 16 69.28 16 72 16 C72 21.28 72 26.56 72 32 C74.64 32 77.28 32 80 32 C80 47.84 80 63.68 80 80 C77.36 80 74.72 80 72 80 C72 85.28 72 90.56 72 96 C74.64 96 77.28 96 80 96 C80 98.64 80 101.28 80 104 C85.28 104 90.56 104 96 104 C96 106.64 96 109.28 96 112 C98.64 112 101.28 112 104 112 C104 114.64 104 117.28 104 120 C106.64 120 109.28 120 112 120 C112 122.64 112 125.28 112 128 C114.64 128 117.28 128 120 128 C120 130.64 120 133.28 120 136 C122.64 136 125.28 136 128 136 C128 143.92 128 151.84 128 160 C120.08 160 112.16 160 104 160 C104 157.36 104 154.72 104 152 C101.36 152 98.72 152 96 152 C96 149.36 96 146.72 96 144 C93.36 144 90.72 144 88 144 C88 141.36 88 138.72 88 136 C85.36 136 82.72 136 80 136 C80 133.36 80 130.72 80 128 C77.36 128 74.72 128 72 128 C72 122.72 72 117.44 72 112 C69.36 112 66.72 112 64 112 C64 109.36 64 106.72 64 104 C58.72 104 53.44 104 48 104 C48 106.64 48 109.28 48 112 C32.16 112 16.32 112 0 112 C0 109.36 0 106.72 0 104 C-5.28 104 -10.56 104 -16 104 C-16 101.36 -16 98.72 -16 96 C-18.64 96 -21.28 96 -24 96 C-24 90.72 -24 85.44 -24 80 C-26.64 80 -29.28 80 -32 80 C-32 64.16 -32 48.32 -32 32 C-29.36 32 -26.72 32 -24 32 C-24 26.72 -24 21.44 -24 16 C-21.36 16 -18.72 16 -16 16 C-16 13.36 -16 10.72 -16 8 C-10.72 8 -5.44 8 0 8 C0 5.36 0 2.72 0 0 Z M0 16 C0 18.64 0 21.28 0 24 C-2.64 24 -5.28 24 -8 24 C-8 26.64 -8 29.28 -8 32 C-10.64 32 -13.28 32 -16 32 C-16 47.84 -16 63.68 -16 80 C-13.36 80 -10.72 80 -8 80 C-8 82.64 -8 85.28 -8 88 C-5.36 88 -2.72 88 0 88 C0 90.64 0 93.28 0 96 C15.84 96 31.68 96 48 96 C48 93.36 48 90.72 48 88 C50.64 88 53.28 88 56 88 C56 85.36 56 82.72 56 80 C58.64 80 61.28 80 64 80 C64 64.16 64 48.32 64 32 C61.36 32 58.72 32 56 32 C56 29.36 56 26.72 56 24 C53.36 24 50.72 24 48 24 C48 21.36 48 18.72 48 16 C32.16 16 16.32 16 0 16 Z " fill="currentColor" transform="translate(80,48)"/>
    <path d="M0 0 C15.84 0 31.68 0 48 0 C48 5.28 48 10.56 48 16 C32.16 16 16.32 16 0 16 C0 10.72 0 5.44 0 0 Z " fill="currentColor" transform="translate(80,96)"/>
  </symbol>
  <symbol id="icon-menu" viewBox="0 0 32 32">
    <path d="M0 0 C1.32 0 2.64 0 4 0 C4 1.32 4 2.64 4 4 C2.68 4 1.36 4 0 4 C0 2.68 0 1.36 0 0 Z " fill="currentColor" transform="translate(22,22)"/>
    <path d="M0 0 C1.32 0 2.64 0 4 0 C4 1.32 4 2.64 4 4 C2.68 4 1.36 4 0 4 C0 2.68 0 1.36 0 0 Z " fill="currentColor" transform="translate(14,22)"/>
    <path d="M0 0 C1.32 0 2.64 0 4 0 C4 1.32 4 2.64 4 4 C2.68 4 1.36 4 0 4 C0 2.68 0 1.36 0 0 Z " fill="currentColor" transform="translate(6,22)"/>
    <path d="M0 0 C1.32 0 2.64 0 4 0 C4 1.32 4 2.64 4 4 C2.68 4 1.36 4 0 4 C0 2.68 0 1.36 0 0 Z " fill="currentColor" transform="translate(22,14)"/>
    <path d="M0 0 C1.32 0 2.64 0 4 0 C4 1.32 4 2.64 4 4 C2.68 4 1.36 4 0 4 C0 2.68 0 1.36 0 0 Z " fill="currentColor" transform="translate(14,14)"/>
    <path d="M0 0 C1.32 0 2.64 0 4 0 C4 1.32 4 2.64 4 4 C2.68 4 1.36 4 0 4 C0 2.68 0 1.36 0 0 Z " fill="currentColor" transform="translate(6,14)"/>
    <path d="M0 0 C1.32 0 2.64 0 4 0 C4 1.32 4 2.64 4 4 C2.68 4 1.36 4 0 4 C0 2.68 0 1.36 0 0 Z " fill="currentColor" transform="translate(22,6)"/>
    <path d="M0 0 C1.32 0 2.64 0 4 0 C4 1.32 4 2.64 4 4 C2.68 4 1.36 4 0 4 C0 2.68 0 1.36 0 0 Z " fill="currentColor" transform="translate(14,6)"/>
    <path d="M0 0 C1.32 0 2.64 0 4 0 C4 1.32 4 2.64 4 4 C2.68 4 1.36 4 0 4 C0 2.68 0 1.36 0 0 Z " fill="currentColor" transform="translate(6,6)"/>
  </symbol>
  <symbol id="icon-download" viewBox="0 0 512 512">
    <path d="M0 0 C10.56 0 21.12 0 32 0 C32 5.28 32 10.56 32 16 C37.28 16 42.56 16 48 16 C48 21.28 48 26.56 48 32 C42.72 32 37.44 32 32 32 C32 37.28 32 42.56 32 48 C37.28 48 42.56 48 48 48 C48 53.28 48 58.56 48 64 C143.04 64 238.08 64 336 64 C336 58.72 336 53.44 336 48 C341.28 48 346.56 48 352 48 C352 42.72 352 37.44 352 32 C346.72 32 341.44 32 336 32 C336 26.72 336 21.44 336 16 C341.28 16 346.56 16 352 16 C352 10.72 352 5.44 352 0 C362.56 0 373.12 0 384 0 C384 42.24 384 84.48 384 128 C257.28 128 130.56 128 0 128 C0 85.76 0 43.52 0 0 Z " fill="currentColor" transform="translate(64,320)"/>
    <path d="M0 0 C5.28 0 10.56 0 16 0 C16 5.28 16 10.56 16 16 C21.28 16 26.56 16 32 16 C32 47.68 32 79.36 32 112 C37.28 112 42.56 112 48 112 C48 106.72 48 101.44 48 96 C53.28 96 58.56 96 64 96 C64 90.72 64 85.44 64 80 C74.56 80 85.12 80 96 80 C96 85.28 96 90.56 96 96 C90.72 96 85.44 96 80 96 C80 101.28 80 106.56 80 112 C74.72 112 69.44 112 64 112 C64 117.28 64 122.56 64 128 C58.72 128 53.44 128 48 128 C48 133.28 48 138.56 48 144 C42.72 144 37.44 144 32 144 C32 149.28 32 154.56 32 160 C21.44 160 10.88 160 0 160 C0 154.72 0 149.44 0 144 C-5.28 144 -10.56 144 -16 144 C-16 138.72 -16 133.44 -16 128 C-21.28 128 -26.56 128 -32 128 C-32 122.72 -32 117.44 -32 112 C-37.28 112 -42.56 112 -48 112 C-48 106.72 -48 101.44 -48 96 C-53.28 96 -58.56 96 -64 96 C-64 90.72 -64 85.44 -64 80 C-53.44 80 -42.88 80 -32 80 C-32 85.28 -32 90.56 -32 96 C-26.72 96 -21.44 96 -16 96 C-16 101.28 -16 106.56 -16 112 C-10.72 112 -5.44 112 0 112 C0 75.04 0 38.08 0 0 Z " fill="currentColor" transform="translate(240,176)"/>
    <path d="M0 0 C5.28 0 10.56 0 16 0 C16 5.28 16 10.56 16 16 C10.72 16 5.44 16 0 16 C0 10.72 0 5.44 0 0 Z " fill="currentColor" transform="translate(384,352)"/>
    <path d="M0 0 C5.28 0 10.56 0 16 0 C16 5.28 16 10.56 16 16 C10.72 16 5.44 16 0 16 C0 10.72 0 5.44 0 0 Z " fill="currentColor" transform="translate(112,352)"/>
    <path d="M0 0 C5.28 0 10.56 0 16 0 C16 5.28 16 10.56 16 16 C10.72 16 5.44 16 0 16 C0 10.72 0 5.44 0 0 Z " fill="currentColor" transform="translate(384,320)"/>
    <path d="M0 0 C5.28 0 10.56 0 16 0 C16 5.28 16 10.56 16 16 C10.72 16 5.44 16 0 16 C0 10.72 0 5.44 0 0 Z " fill="currentColor" transform="translate(112,320)"/>
    <path d="M0 0 C5.28 0 10.56 0 16 0 C16 5.28 16 10.56 16 16 C10.72 16 5.44 16 0 16 C0 10.72 0 5.44 0 0 Z " fill="currentColor" transform="translate(256,160)"/>
    <path d="M0 0 C5.28 0 10.56 0 16 0 C16 5.28 16 10.56 16 16 C10.72 16 5.44 16 0 16 C0 10.72 0 5.44 0 0 Z " fill="currentColor" transform="translate(240,144)"/>
    <path d="M0 0 C5.28 0 10.56 0 16 0 C16 5.28 16 10.56 16 16 C10.72 16 5.44 16 0 16 C0 10.72 0 5.44 0 0 Z " fill="currentColor" transform="translate(256,128)"/>
    <path d="M0 0 C5.28 0 10.56 0 16 0 C16 5.28 16 10.56 16 16 C10.72 16 5.44 16 0 16 C0 10.72 0 5.44 0 0 Z " fill="currentColor" transform="translate(240,112)"/>
    <path d="M0 0 C5.28 0 10.56 0 16 0 C16 5.28 16 10.56 16 16 C10.72 16 5.44 16 0 16 C0 10.72 0 5.44 0 0 Z " fill="currentColor" transform="translate(256,96)"/>
    <path d="M0 0 C5.28 0 10.56 0 16 0 C16 5.28 16 10.56 16 16 C10.72 16 5.44 16 0 16 C0 10.72 0 5.44 0 0 Z " fill="currentColor" transform="translate(240,80)"/>
    <path d="M0 0 C5.28 0 10.56 0 16 0 C16 5.28 16 10.56 16 16 C10.72 16 5.44 16 0 16 C0 10.72 0 5.44 0 0 Z " fill="currentColor" transform="translate(256,64)"/>
  </symbol>
  <symbol id="icon-change-mode" viewBox="0 0 256 256">
    <path d="M0 0 C2.64 0 5.28 0 8 0 C8 5.28 8 10.56 8 16 C5.36 16 2.72 16 0 16 C0 18.64 0 21.28 0 24 C-2.64 24 -5.28 24 -8 24 C-8 26.64 -8 29.28 -8 32 C23.68 32 55.36 32 88 32 C88 34.64 88 37.28 88 40 C85.36 40 82.72 40 80 40 C80 42.64 80 45.28 80 48 C50.96 48 21.92 48 -8 48 C-8 50.64 -8 53.28 -8 56 C-5.36 56 -2.72 56 0 56 C0 58.64 0 61.28 0 64 C2.64 64 5.28 64 8 64 C8 69.28 8 74.56 8 80 C5.36 80 2.72 80 0 80 C0 77.36 0 74.72 0 72 C-2.64 72 -5.28 72 -8 72 C-8 69.36 -8 66.72 -8 64 C-10.64 64 -13.28 64 -16 64 C-16 61.36 -16 58.72 -16 56 C-18.64 56 -21.28 56 -24 56 C-24 53.36 -24 50.72 -24 48 C-26.64 48 -29.28 48 -32 48 C-32 42.72 -32 37.44 -32 32 C-29.36 32 -26.72 32 -24 32 C-24 29.36 -24 26.72 -24 24 C-21.36 24 -18.72 24 -16 24 C-16 21.36 -16 18.72 -16 16 C-13.36 16 -10.72 16 -8 16 C-8 13.36 -8 10.72 -8 8 C-5.36 8 -2.72 8 0 8 C0 5.36 0 2.72 0 0 Z " fill="currentColor" transform="translate(64,136)"/>
    <path d="M0 0 C2.64 0 5.28 0 8 0 C8 2.64 8 5.28 8 8 C10.64 8 13.28 8 16 8 C16 10.64 16 13.28 16 16 C18.64 16 21.28 16 24 16 C24 18.64 24 21.28 24 24 C26.64 24 29.28 24 32 24 C32 26.64 32 29.28 32 32 C34.64 32 37.28 32 40 32 C40 37.28 40 42.56 40 48 C37.36 48 34.72 48 32 48 C32 50.64 32 53.28 32 56 C29.36 56 26.72 56 24 56 C24 58.64 24 61.28 24 64 C21.36 64 18.72 64 16 64 C16 66.64 16 69.28 16 72 C13.36 72 10.72 72 8 72 C8 74.64 8 77.28 8 80 C5.36 80 2.72 80 0 80 C0 74.72 0 69.44 0 64 C2.64 64 5.28 64 8 64 C8 61.36 8 58.72 8 56 C10.64 56 13.28 56 16 56 C16 53.36 16 50.72 16 48 C-15.68 48 -47.36 48 -80 48 C-80 45.36 -80 42.72 -80 40 C-77.36 40 -74.72 40 -72 40 C-72 37.36 -72 34.72 -72 32 C-42.96 32 -13.92 32 16 32 C16 29.36 16 26.72 16 24 C13.36 24 10.72 24 8 24 C8 21.36 8 18.72 8 16 C5.36 16 2.72 16 0 16 C0 10.72 0 5.44 0 0 Z " fill="currentColor" transform="translate(184,40)"/>
    <path d="M0 0 C2.64 0 5.28 0 8 0 C8 2.64 8 5.28 8 8 C5.36 8 2.72 8 0 8 C0 5.36 0 2.72 0 0 Z " fill="currentColor" transform="translate(216,176)"/>
    <path d="M0 0 C2.64 0 5.28 0 8 0 C8 2.64 8 5.28 8 8 C5.36 8 2.72 8 0 8 C0 5.36 0 2.72 0 0 Z " fill="currentColor" transform="translate(200,176)"/>
    <path d="M0 0 C2.64 0 5.28 0 8 0 C8 2.64 8 5.28 8 8 C5.36 8 2.72 8 0 8 C0 5.36 0 2.72 0 0 Z " fill="currentColor" transform="translate(184,176)"/>
    <path d="M0 0 C2.64 0 5.28 0 8 0 C8 2.64 8 5.28 8 8 C5.36 8 2.72 8 0 8 C0 5.36 0 2.72 0 0 Z " fill="currentColor" transform="translate(168,176)"/>
    <path d="M0 0 C2.64 0 5.28 0 8 0 C8 2.64 8 5.28 8 8 C5.36 8 2.72 8 0 8 C0 5.36 0 2.72 0 0 Z " fill="currentColor" transform="translate(152,176)"/>
    <path d="M0 0 C2.64 0 5.28 0 8 0 C8 2.64 8 5.28 8 8 C5.36 8 2.72 8 0 8 C0 5.36 0 2.72 0 0 Z " fill="currentColor" transform="translate(208,168)"/>
    <path d="M0 0 C2.64 0 5.28 0 8 0 C8 2.64 8 5.28 8 8 C5.36 8 2.72 8 0 8 C0 5.36 0 2.72 0 0 Z " fill="currentColor" transform="translate(192,168)"/>
    <path d="M0 0 C2.64 0 5.28 0 8 0 C8 2.64 8 5.28 8 8 C5.36 8 2.72 8 0 8 C0 5.36 0 2.72 0 0 Z " fill="currentColor" transform="translate(176,168)"/>
    <path d="M0 0 C2.64 0 5.28 0 8 0 C8 2.64 8 5.28 8 8 C5.36 8 2.72 8 0 8 C0 5.36 0 2.72 0 0 Z " fill="currentColor" transform="translate(160,168)"/>
    <path d="M0 0 C2.64 0 5.28 0 8 0 C8 2.64 8 5.28 8 8 C5.36 8 2.72 8 0 8 C0 5.36 0 2.72 0 0 Z " fill="currentColor" transform="translate(88,80)"/>
    <path d="M0 0 C2.64 0 5.28 0 8 0 C8 2.64 8 5.28 8 8 C5.36 8 2.72 8 0 8 C0 5.36 0 2.72 0 0 Z " fill="currentColor" transform="translate(72,80)"/>
    <path d="M0 0 C2.64 0 5.28 0 8 0 C8 2.64 8 5.28 8 8 C5.36 8 2.72 8 0 8 C0 5.36 0 2.72 0 0 Z " fill="currentColor" transform="translate(56,80)"/>
    <path d="M0 0 C2.64 0 5.28 0 8 0 C8 2.64 8 5.28 8 8 C5.36 8 2.72 8 0 8 C0 5.36 0 2.72 0 0 Z " fill="currentColor" transform="translate(40,80)"/>
    <path d="M0 0 C2.64 0 5.28 0 8 0 C8 2.64 8 5.28 8 8 C5.36 8 2.72 8 0 8 C0 5.36 0 2.72 0 0 Z " fill="currentColor" transform="translate(96,72)"/>
    <path d="M0 0 C2.64 0 5.28 0 8 0 C8 2.64 8 5.28 8 8 C5.36 8 2.72 8 0 8 C0 5.36 0 2.72 0 0 Z " fill="currentColor" transform="translate(80,72)"/>
    <path d="M0 0 C2.64 0 5.28 0 8 0 C8 2.64 8 5.28 8 8 C5.36 8 2.72 8 0 8 C0 5.36 0 2.72 0 0 Z " fill="currentColor" transform="translate(64,72)"/>
    <path d="M0 0 C2.64 0 5.28 0 8 0 C8 2.64 8 5.28 8 8 C5.36 8 2.72 8 0 8 C0 5.36 0 2.72 0 0 Z " fill="currentColor" transform="translate(48,72)"/>
    <path d="M0 0 C2.64 0 5.28 0 8 0 C8 2.64 8 5.28 8 8 C5.36 8 2.72 8 0 8 C0 5.36 0 2.72 0 0 Z " fill="currentColor" transform="translate(32,72)"/>
  </symbol>
  <symbol id="icon-plus" viewBox="0 0 256 256">
    <path d="M0 0 C10.56 0 21.12 0 32 0 C32 23.76 32 47.52 32 72 C55.76 72 79.52 72 104 72 C104 82.56 104 93.12 104 104 C80.24 104 56.48 104 32 104 C32 127.76 32 151.52 32 176 C21.44 176 10.88 176 0 176 C0 152.24 0 128.48 0 104 C-23.76 104 -47.52 104 -72 104 C-72 93.44 -72 82.88 -72 72 C-48.24 72 -24.48 72 0 72 C0 48.24 0 24.48 0 0 Z " fill="currentColor" transform="translate(112,40)"/></symbol>
  <symbol id="icon-copy" viewBox="0 0 256 256">
    <path d="M0 0 C18.48 0 36.96 0 56 0 C56 2.64 56 5.28 56 8 C58.64 8 61.28 8 64 8 C64 10.64 64 13.28 64 16 C66.64 16 69.28 16 72 16 C72 18.64 72 21.28 72 24 C74.64 24 77.28 24 80 24 C80 26.64 80 29.28 80 32 C82.64 32 85.28 32 88 32 C88 34.64 88 37.28 88 40 C90.64 40 93.28 40 96 40 C96 42.64 96 45.28 96 48 C98.64 48 101.28 48 104 48 C104 79.68 104 111.36 104 144 C69.68 144 35.36 144 0 144 C0 96.48 0 48.96 0 0 Z " fill="currentColor" transform="translate(88,48)"/>
    <path d="M0 0 C5.28 0 10.56 0 16 0 C16 42.24 16 84.48 16 128 C45.04 128 74.08 128 104 128 C104 133.28 104 138.56 104 144 C69.68 144 35.36 144 0 144 C0 96.48 0 48.96 0 0 Z " fill="currentColor" transform="translate(64,72)"/>
  </symbol>
  <symbol id="icon-merge" viewBox="0 0 256 256">
    <path d="M0 0 C5.28 0 10.56 0 16 0 C16 29.04 16 58.08 16 88 C26.56 88 37.12 88 48 88 C48 90.64 48 93.28 48 96 C45.36 96 42.72 96 40 96 C40 98.64 40 101.28 40 104 C37.36 104 34.72 104 32 104 C32 106.64 32 109.28 32 112 C29.36 112 26.72 112 24 112 C24 114.64 24 117.28 24 120 C21.36 120 18.72 120 16 120 C16 122.64 16 125.28 16 128 C10.72 128 5.44 128 0 128 C0 125.36 0 122.72 0 120 C-2.64 120 -5.28 120 -8 120 C-8 117.36 -8 114.72 -8 112 C-10.64 112 -13.28 112 -16 112 C-16 109.36 -16 106.72 -16 104 C-18.64 104 -21.28 104 -24 104 C-24 101.36 -24 98.72 -24 96 C-26.64 96 -29.28 96 -32 96 C-32 93.36 -32 90.72 -32 88 C-21.44 88 -10.88 88 0 88 C0 58.96 0 29.92 0 0 Z " fill="currentColor" transform="translate(120,40)"/>
    <path d="M0 0 C58.08 0 116.16 0 176 0 C176 5.28 176 10.56 176 16 C117.92 16 59.84 16 0 16 C0 10.72 0 5.44 0 0 Z " fill="currentColor" transform="translate(40,200)"/>
    <path d="M0 0 C58.08 0 116.16 0 176 0 C176 5.28 176 10.56 176 16 C117.92 16 59.84 16 0 16 C0 10.72 0 5.44 0 0 Z " fill="currentColor" transform="translate(40,176)"/>
  </symbol>
  <symbol id="icon-trash" viewBox="0 0 256 256">
    <path d="M0 0 C52.8 0 105.6 0 160 0 C160 42.24 160 84.48 160 128 C107.2 128 54.4 128 0 128 C0 85.76 0 43.52 0 0 Z M24 16 C24 47.68 24 79.36 24 112 C29.28 112 34.56 112 40 112 C40 80.32 40 48.64 40 16 C34.72 16 29.44 16 24 16 Z M72 16 C72 47.68 72 79.36 72 112 C77.28 112 82.56 112 88 112 C88 80.32 88 48.64 88 16 C82.72 16 77.44 16 72 16 Z M120 16 C120 47.68 120 79.36 120 112 C125.28 112 130.56 112 136 112 C136 80.32 136 48.64 136 16 C130.72 16 125.44 16 120 16 Z " fill="currentColor" transform="translate(48,88)"/>
    <path d="M0 0 C26.4 0 52.8 0 80 0 C80 5.28 80 10.56 80 16 C93.2 16 106.4 16 120 16 C120 23.92 120 31.84 120 40 C67.2 40 14.4 40 -40 40 C-40 32.08 -40 24.16 -40 16 C-26.8 16 -13.6 16 0 16 C0 10.72 0 5.44 0 0 Z M16 8 C16 10.64 16 13.28 16 16 C31.84 16 47.68 16 64 16 C64 13.36 64 10.72 64 8 C48.16 8 32.32 8 16 8 Z " fill="currentColor" transform="translate(88,40)"/>
  </symbol>
  <symbol id="icon-eye-open" viewBox="0 0 256 256">
    <path d="M0 0 C15.84 0 31.68 0 48 0 C48 2.64 48 5.28 48 8 C53.28 8 58.56 8 64 8 C64 10.64 64 13.28 64 16 C69.28 16 74.56 16 80 16 C80 18.64 80 21.28 80 24 C85.28 24 90.56 24 96 24 C96 26.64 96 29.28 96 32 C98.64 32 101.28 32 104 32 C104 34.64 104 37.28 104 40 C106.64 40 109.28 40 112 40 C112 42.64 112 45.28 112 48 C114.64 48 117.28 48 120 48 C120 50.64 120 53.28 120 56 C122.64 56 125.28 56 128 56 C128 66.56 128 77.12 128 88 C125.36 88 122.72 88 120 88 C120 90.64 120 93.28 120 96 C117.36 96 114.72 96 112 96 C112 98.64 112 101.28 112 104 C109.36 104 106.72 104 104 104 C104 106.64 104 109.28 104 112 C101.36 112 98.72 112 96 112 C96 114.64 96 117.28 96 120 C90.72 120 85.44 120 80 120 C80 122.64 80 125.28 80 128 C74.72 128 69.44 128 64 128 C64 130.64 64 133.28 64 136 C58.72 136 53.44 136 48 136 C48 138.64 48 141.28 48 144 C32.16 144 16.32 144 0 144 C0 141.36 0 138.72 0 136 C-5.28 136 -10.56 136 -16 136 C-16 133.36 -16 130.72 -16 128 C-21.28 128 -26.56 128 -32 128 C-32 125.36 -32 122.72 -32 120 C-37.28 120 -42.56 120 -48 120 C-48 117.36 -48 114.72 -48 112 C-50.64 112 -53.28 112 -56 112 C-56 109.36 -56 106.72 -56 104 C-58.64 104 -61.28 104 -64 104 C-64 101.36 -64 98.72 -64 96 C-66.64 96 -69.28 96 -72 96 C-72 93.36 -72 90.72 -72 88 C-74.64 88 -77.28 88 -80 88 C-80 77.44 -80 66.88 -80 56 C-77.36 56 -74.72 56 -72 56 C-72 53.36 -72 50.72 -72 48 C-69.36 48 -66.72 48 -64 48 C-64 45.36 -64 42.72 -64 40 C-61.36 40 -58.72 40 -56 40 C-56 37.36 -56 34.72 -56 32 C-53.36 32 -50.72 32 -48 32 C-48 29.36 -48 26.72 -48 24 C-42.72 24 -37.44 24 -32 24 C-32 21.36 -32 18.72 -32 16 C-26.72 16 -21.44 16 -16 16 C-16 13.36 -16 10.72 -16 8 C-10.72 8 -5.44 8 0 8 C0 5.36 0 2.72 0 0 Z M8 32 C8 34.64 8 37.28 8 40 C2.72 40 -2.56 40 -8 40 C-8 45.28 -8 50.56 -8 56 C-10.64 56 -13.28 56 -16 56 C-16 66.56 -16 77.12 -16 88 C-13.36 88 -10.72 88 -8 88 C-8 93.28 -8 98.56 -8 104 C-2.72 104 2.56 104 8 104 C8 106.64 8 109.28 8 112 C18.56 112 29.12 112 40 112 C40 109.36 40 106.72 40 104 C45.28 104 50.56 104 56 104 C56 98.72 56 93.44 56 88 C58.64 88 61.28 88 64 88 C64 77.44 64 66.88 64 56 C61.36 56 58.72 56 56 56 C56 50.72 56 45.44 56 40 C50.72 40 45.44 40 40 40 C40 37.36 40 34.72 40 32 C29.44 32 18.88 32 8 32 Z " fill="currentColor" transform="translate(104,56)"/>
    <path d="M0 0 C10.56 0 21.12 0 32 0 C32 2.64 32 5.28 32 8 C34.64 8 37.28 8 40 8 C40 10.64 40 13.28 40 16 C42.64 16 45.28 16 48 16 C48 26.56 48 37.12 48 48 C45.36 48 42.72 48 40 48 C40 50.64 40 53.28 40 56 C37.36 56 34.72 56 32 56 C32 58.64 32 61.28 32 64 C21.44 64 10.88 64 0 64 C0 61.36 0 58.72 0 56 C-2.64 56 -5.28 56 -8 56 C-8 53.36 -8 50.72 -8 48 C-10.64 48 -13.28 48 -16 48 C-16 37.44 -16 26.88 -16 16 C-13.36 16 -10.72 16 -8 16 C-8 13.36 -8 10.72 -8 8 C-5.36 8 -2.72 8 0 8 C0 5.36 0 2.72 0 0 Z M0 16 C0 26.56 0 37.12 0 48 C10.56 48 21.12 48 32 48 C32 37.44 32 26.88 32 16 C21.44 16 10.88 16 0 16 Z " fill="currentColor" transform="translate(112,96)"/>
  </symbol>
  <symbol id="icon-eye-closed" viewBox="0 0 256 256">
    <path d="M0 0 C15.84 0 31.68 0 48 0 C48 2.64 48 5.28 48 8 C53.28 8 58.56 8 64 8 C64 10.64 64 13.28 64 16 C69.28 16 74.56 16 80 16 C80 18.64 80 21.28 80 24 C85.28 24 90.56 24 96 24 C96 26.64 96 29.28 96 32 C98.64 32 101.28 32 104 32 C104 34.64 104 37.28 104 40 C106.64 40 109.28 40 112 40 C112 42.64 112 45.28 112 48 C114.64 48 117.28 48 120 48 C120 50.64 120 53.28 120 56 C122.64 56 125.28 56 128 56 C128 66.56 128 77.12 128 88 C125.36 88 122.72 88 120 88 C120 90.64 120 93.28 120 96 C117.36 96 114.72 96 112 96 C112 98.64 112 101.28 112 104 C109.36 104 106.72 104 104 104 C104 106.64 104 109.28 104 112 C101.36 112 98.72 112 96 112 C96 114.64 96 117.28 96 120 C90.72 120 85.44 120 80 120 C80 122.64 80 125.28 80 128 C74.72 128 69.44 128 64 128 C64 130.64 64 133.28 64 136 C58.72 136 53.44 136 48 136 C48 138.64 48 141.28 48 144 C32.16 144 16.32 144 0 144 C0 141.36 0 138.72 0 136 C-5.28 136 -10.56 136 -16 136 C-16 133.36 -16 130.72 -16 128 C-21.28 128 -26.56 128 -32 128 C-32 125.36 -32 122.72 -32 120 C-37.28 120 -42.56 120 -48 120 C-48 117.36 -48 114.72 -48 112 C-50.64 112 -53.28 112 -56 112 C-56 109.36 -56 106.72 -56 104 C-58.64 104 -61.28 104 -64 104 C-64 101.36 -64 98.72 -64 96 C-66.64 96 -69.28 96 -72 96 C-72 93.36 -72 90.72 -72 88 C-74.64 88 -77.28 88 -80 88 C-80 77.44 -80 66.88 -80 56 C-77.36 56 -74.72 56 -72 56 C-72 53.36 -72 50.72 -72 48 C-69.36 48 -66.72 48 -64 48 C-64 45.36 -64 42.72 -64 40 C-61.36 40 -58.72 40 -56 40 C-56 37.36 -56 34.72 -56 32 C-53.36 32 -50.72 32 -48 32 C-48 29.36 -48 26.72 -48 24 C-42.72 24 -37.44 24 -32 24 C-32 21.36 -32 18.72 -32 16 C-26.72 16 -21.44 16 -16 16 C-16 13.36 -16 10.72 -16 8 C-10.72 8 -5.44 8 0 8 C0 5.36 0 2.72 0 0 Z M8 16 C8 18.64 8 21.28 8 24 C2.72 24 -2.56 24 -8 24 C-8 26.64 -8 29.28 -8 32 C-13.28 32 -18.56 32 -24 32 C-24 34.64 -24 37.28 -24 40 C-29.28 40 -34.56 40 -40 40 C-40 42.64 -40 45.28 -40 48 C-42.64 48 -45.28 48 -48 48 C-48 50.64 -48 53.28 -48 56 C-50.64 56 -53.28 56 -56 56 C-56 58.64 -56 61.28 -56 64 C-58.64 64 -61.28 64 -64 64 C-64 69.28 -64 74.56 -64 80 C-61.36 80 -58.72 80 -56 80 C-56 82.64 -56 85.28 -56 88 C-53.36 88 -50.72 88 -48 88 C-48 90.64 -48 93.28 -48 96 C-45.36 96 -42.72 96 -40 96 C-40 98.64 -40 101.28 -40 104 C-34.72 104 -29.44 104 -24 104 C-24 106.64 -24 109.28 -24 112 C-18.72 112 -13.44 112 -8 112 C-8 114.64 -8 117.28 -8 120 C-2.72 120 2.56 120 8 120 C8 122.64 8 125.28 8 128 C18.56 128 29.12 128 40 128 C40 125.36 40 122.72 40 120 C45.28 120 50.56 120 56 120 C56 117.36 56 114.72 56 112 C61.28 112 66.56 112 72 112 C72 109.36 72 106.72 72 104 C77.28 104 82.56 104 88 104 C88 101.36 88 98.72 88 96 C90.64 96 93.28 96 96 96 C96 93.36 96 90.72 96 88 C98.64 88 101.28 88 104 88 C104 85.36 104 82.72 104 80 C106.64 80 109.28 80 112 80 C112 74.72 112 69.44 112 64 C109.36 64 106.72 64 104 64 C104 61.36 104 58.72 104 56 C101.36 56 98.72 56 96 56 C96 53.36 96 50.72 96 48 C93.36 48 90.72 48 88 48 C88 45.36 88 42.72 88 40 C82.72 40 77.44 40 72 40 C72 37.36 72 34.72 72 32 C66.72 32 61.44 32 56 32 C56 29.36 56 26.72 56 24 C50.72 24 45.44 24 40 24 C40 21.36 40 18.72 40 16 C29.44 16 18.88 16 8 16 Z " fill="currentColor" transform="translate(104,56)"/>
  </symbol>
  <symbol id="icon-folder" viewBox="0 0 256 256">
    <path d="M0 0 C58.08 0 116.16 0 176 0 C176 31.68 176 63.36 176 96 C117.92 96 59.84 96 0 96 C0 64.32 0 32.64 0 0 Z " fill="currentColor" transform="translate(40,120)"/>
    <path d="M0 0 C26.4 0 52.8 0 80 0 C80 2.64 80 5.28 80 8 C82.64 8 85.28 8 88 8 C88 10.64 88 13.28 88 16 C90.64 16 93.28 16 96 16 C96 18.64 96 21.28 96 24 C98.64 24 101.28 24 104 24 C104 26.64 104 29.28 104 32 C127.76 32 151.52 32 176 32 C176 42.56 176 53.12 176 64 C117.92 64 59.84 64 0 64 C0 42.88 0 21.76 0 0 Z " fill="currentColor" transform="translate(40,40)"/>
  </symbol>
  <symbol id="icon-settings" viewBox="0 0 256 256">
    <path d="M0 0 C10.56 0 21.12 0 32 0 C32 5.28 32 10.56 32 16 C34.64 16 37.28 16 40 16 C40 18.64 40 21.28 40 24 C45.28 24 50.56 24 56 24 C56 21.36 56 18.72 56 16 C58.64 16 61.28 16 64 16 C64 13.36 64 10.72 64 8 C66.64 8 69.28 8 72 8 C72 10.64 72 13.28 72 16 C74.64 16 77.28 16 80 16 C80 18.64 80 21.28 80 24 C82.64 24 85.28 24 88 24 C88 26.64 88 29.28 88 32 C90.64 32 93.28 32 96 32 C96 34.64 96 37.28 96 40 C93.36 40 90.72 40 88 40 C88 42.64 88 45.28 88 48 C85.36 48 82.72 48 80 48 C80 53.28 80 58.56 80 64 C82.64 64 85.28 64 88 64 C88 66.64 88 69.28 88 72 C93.28 72 98.56 72 104 72 C104 82.56 104 93.12 104 104 C98.72 104 93.44 104 88 104 C88 106.64 88 109.28 88 112 C85.36 112 82.72 112 80 112 C80 117.28 80 122.56 80 128 C82.64 128 85.28 128 88 128 C88 130.64 88 133.28 88 136 C90.64 136 93.28 136 96 136 C96 138.64 96 141.28 96 144 C93.36 144 90.72 144 88 144 C88 146.64 88 149.28 88 152 C85.36 152 82.72 152 80 152 C80 154.64 80 157.28 80 160 C77.36 160 74.72 160 72 160 C72 162.64 72 165.28 72 168 C69.36 168 66.72 168 64 168 C64 165.36 64 162.72 64 160 C61.36 160 58.72 160 56 160 C56 157.36 56 154.72 56 152 C50.72 152 45.44 152 40 152 C40 154.64 40 157.28 40 160 C37.36 160 34.72 160 32 160 C32 165.28 32 170.56 32 176 C21.44 176 10.88 176 0 176 C0 170.72 0 165.44 0 160 C-2.64 160 -5.28 160 -8 160 C-8 157.36 -8 154.72 -8 152 C-13.28 152 -18.56 152 -24 152 C-24 154.64 -24 157.28 -24 160 C-26.64 160 -29.28 160 -32 160 C-32 162.64 -32 165.28 -32 168 C-34.64 168 -37.28 168 -40 168 C-40 165.36 -40 162.72 -40 160 C-42.64 160 -45.28 160 -48 160 C-48 157.36 -48 154.72 -48 152 C-50.64 152 -53.28 152 -56 152 C-56 149.36 -56 146.72 -56 144 C-58.64 144 -61.28 144 -64 144 C-64 141.36 -64 138.72 -64 136 C-61.36 136 -58.72 136 -56 136 C-56 133.36 -56 130.72 -56 128 C-53.36 128 -50.72 128 -48 128 C-48 122.72 -48 117.44 -48 112 C-50.64 112 -53.28 112 -56 112 C-56 109.36 -56 106.72 -56 104 C-61.28 104 -66.56 104 -72 104 C-72 93.44 -72 82.88 -72 72 C-66.72 72 -61.44 72 -56 72 C-56 69.36 -56 66.72 -56 64 C-53.36 64 -50.72 64 -48 64 C-48 58.72 -48 53.44 -48 48 C-50.64 48 -53.28 48 -56 48 C-56 45.36 -56 42.72 -56 40 C-58.64 40 -61.28 40 -64 40 C-64 37.36 -64 34.72 -64 32 C-61.36 32 -58.72 32 -56 32 C-56 29.36 -56 26.72 -56 24 C-53.36 24 -50.72 24 -48 24 C-48 21.36 -48 18.72 -48 16 C-45.36 16 -42.72 16 -40 16 C-40 13.36 -40 10.72 -40 8 C-37.36 8 -34.72 8 -32 8 C-32 10.64 -32 13.28 -32 16 C-29.36 16 -26.72 16 -24 16 C-24 18.64 -24 21.28 -24 24 C-18.72 24 -13.44 24 -8 24 C-8 21.36 -8 18.72 -8 16 C-5.36 16 -2.72 16 0 16 C0 10.72 0 5.44 0 0 Z M-8 40 C-8 42.64 -8 45.28 -8 48 C-10.64 48 -13.28 48 -16 48 C-16 50.64 -16 53.28 -16 56 C-18.64 56 -21.28 56 -24 56 C-24 58.64 -24 61.28 -24 64 C-26.64 64 -29.28 64 -32 64 C-32 79.84 -32 95.68 -32 112 C-29.36 112 -26.72 112 -24 112 C-24 114.64 -24 117.28 -24 120 C-21.36 120 -18.72 120 -16 120 C-16 122.64 -16 125.28 -16 128 C-13.36 128 -10.72 128 -8 128 C-8 130.64 -8 133.28 -8 136 C7.84 136 23.68 136 40 136 C40 133.36 40 130.72 40 128 C42.64 128 45.28 128 48 128 C48 125.36 48 122.72 48 120 C50.64 120 53.28 120 56 120 C56 117.36 56 114.72 56 112 C58.64 112 61.28 112 64 112 C64 96.16 64 80.32 64 64 C61.36 64 58.72 64 56 64 C56 61.36 56 58.72 56 56 C53.36 56 50.72 56 48 56 C48 53.36 48 50.72 48 48 C45.36 48 42.72 48 40 48 C40 45.36 40 42.72 40 40 C24.16 40 8.32 40 -8 40 Z " fill="currentColor" transform="translate(112,40)"/>
    <path d="M0 0 C10.56 0 21.12 0 32 0 C32 2.64 32 5.28 32 8 C34.64 8 37.28 8 40 8 C40 10.64 40 13.28 40 16 C42.64 16 45.28 16 48 16 C48 26.56 48 37.12 48 48 C45.36 48 42.72 48 40 48 C40 50.64 40 53.28 40 56 C37.36 56 34.72 56 32 56 C32 58.64 32 61.28 32 64 C21.44 64 10.88 64 0 64 C0 61.36 0 58.72 0 56 C-2.64 56 -5.28 56 -8 56 C-8 53.36 -8 50.72 -8 48 C-10.64 48 -13.28 48 -16 48 C-16 37.44 -16 26.88 -16 16 C-13.36 16 -10.72 16 -8 16 C-8 13.36 -8 10.72 -8 8 C-5.36 8 -2.72 8 0 8 C0 5.36 0 2.72 0 0 Z M0 16 C0 26.56 0 37.12 0 48 C10.56 48 21.12 48 32 48 C32 37.44 32 26.88 32 16 C21.44 16 10.88 16 0 16 Z " fill="currentColor" transform="translate(112,96)"/>
  </symbol>
  <symbol id="icon-lock-closed" viewBox="0 0 256 256">
    <path d="M0 0 C15.84 0 31.68 0 48 0 C48 2.64 48 5.28 48 8 C53.28 8 58.56 8 64 8 C64 10.64 64 13.28 64 16 C66.64 16 69.28 16 72 16 C72 18.64 72 21.28 72 24 C74.64 24 77.28 24 80 24 C80 29.28 80 34.56 80 40 C82.64 40 85.28 40 88 40 C88 50.56 88 61.12 88 72 C93.28 72 98.56 72 104 72 C104 106.32 104 140.64 104 176 C51.2 176 -1.6 176 -56 176 C-56 141.68 -56 107.36 -56 72 C-50.72 72 -45.44 72 -40 72 C-40 61.44 -40 50.88 -40 40 C-37.36 40 -34.72 40 -32 40 C-32 34.72 -32 29.44 -32 24 C-29.36 24 -26.72 24 -24 24 C-24 21.36 -24 18.72 -24 16 C-21.36 16 -18.72 16 -16 16 C-16 13.36 -16 10.72 -16 8 C-10.72 8 -5.44 8 0 8 C0 5.36 0 2.72 0 0 Z M0 24 C0 26.64 0 29.28 0 32 C-2.64 32 -5.28 32 -8 32 C-8 34.64 -8 37.28 -8 40 C-10.64 40 -13.28 40 -16 40 C-16 50.56 -16 61.12 -16 72 C10.4 72 36.8 72 64 72 C64 61.44 64 50.88 64 40 C61.36 40 58.72 40 56 40 C56 37.36 56 34.72 56 32 C53.36 32 50.72 32 48 32 C48 29.36 48 26.72 48 24 C32.16 24 16.32 24 0 24 Z M16 96 C16 114.48 16 132.96 16 152 C26.56 152 37.12 152 48 152 C48 146.72 48 141.44 48 136 C42.72 136 37.44 136 32 136 C32 122.8 32 109.6 32 96 C26.72 96 21.44 96 16 96 Z " fill="currentColor" transform="translate(104,40)"/>
  </symbol>
  <symbol id="icon-lock-open" viewBox="0 0 256 256">
    <path d="M0 0 C15.84 0 31.68 0 48 0 C48 2.64 48 5.28 48 8 C53.28 8 58.56 8 64 8 C64 10.64 64 13.28 64 16 C66.64 16 69.28 16 72 16 C72 18.64 72 21.28 72 24 C74.64 24 77.28 24 80 24 C80 29.28 80 34.56 80 40 C82.64 40 85.28 40 88 40 C88 45.28 88 50.56 88 56 C80.08 56 72.16 56 64 56 C64 50.72 64 45.44 64 40 C61.36 40 58.72 40 56 40 C56 37.36 56 34.72 56 32 C53.36 32 50.72 32 48 32 C48 29.36 48 26.72 48 24 C32.16 24 16.32 24 0 24 C0 26.64 0 29.28 0 32 C-2.64 32 -5.28 32 -8 32 C-8 34.64 -8 37.28 -8 40 C-10.64 40 -13.28 40 -16 40 C-16 55.84 -16 71.68 -16 88 C23.6 88 63.2 88 104 88 C104 122.32 104 156.64 104 192 C51.2 192 -1.6 192 -56 192 C-56 157.68 -56 123.36 -56 88 C-50.72 88 -45.44 88 -40 88 C-40 72.16 -40 56.32 -40 40 C-37.36 40 -34.72 40 -32 40 C-32 34.72 -32 29.44 -32 24 C-29.36 24 -26.72 24 -24 24 C-24 21.36 -24 18.72 -24 16 C-21.36 16 -18.72 16 -16 16 C-16 13.36 -16 10.72 -16 8 C-10.72 8 -5.44 8 0 8 C0 5.36 0 2.72 0 0 Z M16 112 C16 130.48 16 148.96 16 168 C26.56 168 37.12 168 48 168 C48 162.72 48 157.44 48 152 C42.72 152 37.44 152 32 152 C32 138.8 32 125.6 32 112 C26.72 112 21.44 112 16 112 Z " fill="currentColor" transform="translate(104,24)"/>
  </symbol>
  <symbol id="icon-arrow1" viewBox="0 0 256 256"></symbol>
  <symbol id="icon-arrow1" viewBox="0 0 256 256"></symbol>

</svg>
